<svg width="18" height="22" viewBox="0 0 18 22" fill="none" xmlns="http://www.w3.org/2000/svg">
<path fill-rule="evenodd" clip-rule="evenodd" d="M12.5996 4.39687H9.59961C9.26824 4.39687 8.99961 4.12825 8.99961 3.79688V0.796875L12.5996 4.39687ZM4.79961 13.3969H2.99961C2.66824 13.3969 2.39961 13.1282 2.39961 12.7969C2.39961 12.4655 2.66824 12.1969 2.99961 12.1969H4.79961V10.9969H2.99961C2.66824 10.9969 2.39961 10.7282 2.39961 10.3969C2.39961 10.0655 2.66824 9.79688 2.99961 9.79688H4.79961V8.59688H2.99961C2.66824 8.59688 2.39961 8.32825 2.39961 7.99687C2.39961 7.6655 2.66824 7.39687 2.99961 7.39687H4.79961V4.99687H8.25832C7.96245 4.66726 7.79905 4.2398 7.79961 3.79688V0.796875H0.599609V14.5969C0.599609 15.591 1.4055 16.3969 2.39961 16.3969H4.79961V13.3969ZM17.3996 9.19687H14.3996C14.0682 9.19687 13.7996 8.92825 13.7996 8.59688V5.59688L17.3996 9.19687ZM14.3996 10.3969C13.4055 10.3969 12.5996 9.59099 12.5996 8.59688V5.59688H5.39961V19.3969C5.39961 20.391 6.2055 21.1969 7.19961 21.1969H17.3996V10.3969H14.3996ZM15.5996 17.5969C15.5996 17.9282 15.331 18.1969 14.9996 18.1969H7.79961C7.46824 18.1969 7.19961 17.9282 7.19961 17.5969C7.19961 17.2655 7.46824 16.9969 7.79961 16.9969H14.9996C15.331 16.9969 15.5996 17.2655 15.5996 17.5969ZM15.5996 15.1969C15.5996 15.5282 15.331 15.7969 14.9996 15.7969H7.79961C7.46824 15.7969 7.19961 15.5282 7.19961 15.1969C7.19961 14.8655 7.46824 14.5969 7.79961 14.5969H14.9996C15.331 14.5969 15.5996 14.8655 15.5996 15.1969ZM15.5996 12.7969C15.5996 13.1282 15.331 13.3969 14.9996 13.3969H7.79961C7.46824 13.3969 7.19961 13.1282 7.19961 12.7969C7.19961 12.4655 7.46824 12.1969 7.79961 12.1969H14.9996C15.331 12.1969 15.5996 12.4655 15.5996 12.7969Z" fill="black"/>
</svg>
